HIERARCHY
ROOT Hips
{
	OFFSET 0.000000 0.000000 0.000000 
	CHANNELS 6 Xposition Yposition Zposition Zrotation Yrotation Xrotation
	JOINT LeftUpLeg
	{
		OFFSET 1.363060 -1.794630 0.839290 
		CHANNELS 3 Zrotation Yrotation Xrotation
		JOINT LeftLeg
		{
			OFFSET 2.448110 -6.726130 0.000000 
			CHANNELS 3 Zrotation Yrotation Xrotation
			JOINT LeftFoot
			{
				OFFSET 2.562200 -7.039590 0.000000 
				CHANNELS 3 Zrotation Yrotation Xrotation
				JOINT LeftToeBase
				{
					OFFSET 0.157640 -0.433110 2.322550 
					CHANNELS 3 Zrotation Yrotation Xrotation
					End Site
					{
						OFFSET 0.000000 0.000000 0.000000 
					}
				}
			}
		}
	}
	JOINT RightUpLeg
	{
		OFFSET -1.305520 -1.794630 0.839290 
		CHANNELS 3 Zrotation Yrotation Xrotation
		JOINT RightLeg
		{
			OFFSET -2.542530 -6.985550 0.000000 
			CHANNELS 3 Zrotation Yrotation Xrotation
			JOINT RightFoot
			{
				OFFSET -2.568260 -7.056230 0.000000 
				CHANNELS 3 Zrotation Yrotation Xrotation
				JOINT RightToeBase
				{
					OFFSET -0.164730 -0.452590 2.363150 
					CHANNELS 3 Zrotation Yrotation Xrotation
					End Site
					{
						OFFSET 0.000000 0.000000 0.000000 
					}
				}
			}
		}
	}
	JOINT Spine
	{
		OFFSET 0.028270 2.035590 -0.193380 
		CHANNELS 3 Zrotation Yrotation Xrotation
		JOINT Spine1
		{
			OFFSET 0.056720 2.048850 -0.042750 
			CHANNELS 3 Zrotation Yrotation Xrotation
			JOINT Neck1
			{
				OFFSET -0.054170 1.746240 0.172020 
				CHANNELS 3 Zrotation Yrotation Xrotation
				JOINT Head
				{
					OFFSET 0.104070 1.761360 -0.123970 
					CHANNELS 3 Zrotation Yrotation Xrotation
					End Site
					{
						OFFSET 0.000000 0.000000 0.000000 
					}
				}
			}
			JOINT LeftArm
			{
				OFFSET 3.362410 1.200890 -0.311210 
				CHANNELS 3 Zrotation Yrotation Xrotation
				JOINT LeftForeArm
				{
					OFFSET 4.983000 -0.000000 -0.000000 
					CHANNELS 3 Zrotation Yrotation Xrotation
					JOINT LeftHand
					{
						OFFSET 3.483560 -0.000000 -0.000000 
						CHANNELS 3 Zrotation Yrotation Xrotation
						JOINT LeftHandIndex1
						{
							OFFSET 0.715260 -0.000000 -0.000000 
							CHANNELS 3 Zrotation Yrotation Xrotation
							End Site
							{
								OFFSET 0.000000 0.000000 0.000000 
							}
						}
					}
				}
			}
			JOINT RightArm
			{
				OFFSET -3.136600 1.374050 -0.404650 
				CHANNELS 3 Zrotation Yrotation Xrotation
				JOINT RightForeArm
				{
					OFFSET -5.241900 -0.000000 -0.000000 
					CHANNELS 3 Zrotation Yrotation Xrotation
					JOINT RightHand
					{
						OFFSET -3.444170 -0.000000 -0.000000 
						CHANNELS 3 Zrotation Yrotation Xrotation
						JOINT RightHandIndex1
						{
							OFFSET -0.622530 -0.000000 -0.000000 
							CHANNELS 3 Zrotation Yrotation Xrotation
							End Site
							{
								OFFSET 0.000000 0.000000 0.000000 
							}
						}
					}
				}
			}
		}
	}
}
MOTION
Frames: 6
Frame Time: 0.041667
-9.687213 17.527268 -16.422818 -48.262094 86.386131 -47.792295 -14.173131 -3.642631 -6.284032 -0.304344 10.245068 26.931085 0.540841 2.714476 -16.760557 2.139700 -9.151200 -26.269300 24.532294 -7.470005 12.971132 2.179565 -0.638667 3.568976 0.699960 -13.946288 -13.623250 -0.027500 1.070400 -2.942500 1.436134 1.018752 -1.095958 0.893507 0.500037 -4.210397 2.544462 -3.369864 16.392278 0.830400 -1.761200 12.926800 -83.328686 -14.896855 51.706429 108.947142 -52.390748 -75.636774 -1.289507 0.354172 -48.389256 -7.125000 0.000000 0.000000 80.719222 13.285993 42.700584 -114.473753 51.595215 -80.148034 1.098887 -0.721646 -15.752564 7.125000 0.000000 0.000000 
-9.703119 17.527756 -16.425062 -45.926904 86.390376 -45.493874 -14.208328 -3.529393 -6.378563 -0.294278 10.278331 26.988650 0.541158 2.671011 -16.703231 2.146000 -9.163800 -26.309100 24.483782 -7.398371 12.984336 2.178176 -0.628420 3.569557 0.705951 -13.967433 -13.562986 -0.028900 1.098000 -3.018500 1.472935 1.059619 -1.081526 0.987075 0.526626 -4.216501 2.499381 -3.286041 16.345547 0.811000 -1.726800 12.879200 -83.300169 -16.693092 51.148991 106.753453 -52.763572 -73.563895 -1.335618 0.369370 -49.132726 -7.125000 0.000000 0.000000 80.483785 15.113875 42.442091 -112.778494 51.972679 -78.547371 1.127101 -0.746098 -15.925870 7.125000 0.000000 0.000000 
-9.719026 17.529220 -16.429551 -43.886814 86.466544 -43.474041 -14.302792 -3.477898 -6.457260 -0.297100 10.300105 27.003159 0.535283 2.668073 -16.643467 2.161100 -9.193800 -26.403500 24.366827 -7.376526 12.968585 2.172968 -0.617729 3.571014 0.713125 -13.994397 -13.500389 -0.032600 1.165700 -3.204700 1.465714 1.088926 -1.068973 0.997840 0.545087 -4.211125 2.505505 -3.263330 16.302421 0.814500 -1.714700 12.845900 -83.137316 -18.534876 50.676825 104.422640 -53.117825 -71.344245 -1.384853 0.377074 -49.954249 -7.125000 0.000000 0.000000 80.168618 16.824503 42.174648 -110.972148 52.351930 -76.823121 1.159990 -0.770993 -16.253666 7.125000 0.000000 0.000000 
-9.734932 17.530976 -16.436187 -43.429850 86.592597 -43.015645 -14.415606 -3.501158 -6.528670 -0.305790 10.309150 26.993280 0.524437 2.693496 -16.570253 2.194500 -9.259900 -26.611900 24.226438 -7.424389 12.903624 2.165177 -0.612731 3.571639 0.719864 -14.022290 -13.443809 -0.037300 1.246400 -3.427100 1.422911 1.102606 -1.063138 0.916485 0.550480 -4.203696 2.553204 -3.306902 16.253250 0.836100 -1.729000 12.820400 -82.865072 -20.413606 50.308035 101.979849 -53.445330 -69.001356 -1.437267 0.376424 -50.771959 -7.125000 0.000000 0.000000 79.757607 18.388326 41.876661 -109.105261 52.720538 -75.030342 1.194885 -0.792927 -16.715820 7.125000 0.000000 0.000000 
-9.750935 17.532733 -16.444286 -45.542416 86.733592 -45.101103 -14.510796 -3.585369 -6.600085 -0.314056 10.304021 26.974237 0.509731 2.736271 -16.474413 2.256500 -9.381100 -26.994900 24.105707 -7.533777 12.778069 2.156375 -0.617865 3.569445 0.724371 -14.044730 -13.401228 -0.040500 1.298900 -3.571500 1.365155 1.098743 -1.068713 0.772020 0.540274 -4.207635 2.616203 -3.398810 16.196302 0.863100 -1.764700 12.799400 -82.525947 -22.295157 50.022907 99.491398 -53.735334 -66.604523 -1.491332 0.368181 -51.512848 -7.125000 0.000000 0.000000 79.299783 19.824007 41.517165 -107.209729 53.072810 -73.206450 1.230571 -0.811068 -17.239048 7.125000 0.000000 0.000000 
-9.766744 17.534685 -16.452093 -50.480143 86.856304 -49.986607 -14.568535 -3.692442 -6.673073 -0.317142 10.282173 26.953872 0.492364 2.789023 -16.353244 2.353100 -9.565700 -27.581500 24.032707 -7.669153 12.592170 2.148102 -0.634755 3.562569 0.726085 -14.058902 -13.376582 -0.039900 1.289100 -3.544600 1.317514 1.075251 -1.088246 0.620093 0.511258 -4.233998 2.658893 -3.502854 16.134905 0.878300 -1.809000 12.781900 -82.164129 -24.131083 49.774072 97.056349 -53.977358 -64.260779 -1.543784 0.354344 -52.149636 -7.125000 0.000000 0.000000 78.882240 21.193883 41.072588 -105.289246 53.409286 -71.358173 1.267734 -0.827246 -17.724374 7.125000 0.000000 0.000000 
